<svg xmlns="http://www.w3.org/2000/svg" viewBox="0 0 200 200" fill="none">
  <!-- Cloud shape -->
  <path d="M160 95c0-22-18-40-40-40-4 0-8 0.5-12 1.5C102 42 87 32 70 32c-26 0-47 21-47 47 0 3 0.3 6 0.9 9C10 93 0 107 0 123c0 22 18 40 40 40h115c25 0 45-20 45-45 0-12-5-23-13-31-5-3-17 3-27 8z" fill="#4a6fa5" opacity="0.3"/>
  
  <!-- Globe/Network icon -->
  <g transform="translate(50, 45)">
    <!-- Outer circle -->
    <circle cx="50" cy="50" r="45" stroke="#e8eef5" stroke-width="3" fill="none"/>
    
    <!-- Horizontal lines -->
    <ellipse cx="50" cy="50" rx="45" ry="18" stroke="#e8eef5" stroke-width="2.5" fill="none"/>
    <line x1="5" y1="50" x2="95" y2="50" stroke="#e8eef5" stroke-width="2.5"/>
    
    <!-- Vertical ellipse -->
    <ellipse cx="50" cy="50" rx="18" ry="45" stroke="#e8eef5" stroke-width="2.5" fill="none"/>
    <line x1="50" y1="5" x2="50" y2="95" stroke="#e8eef5" stroke-width="2.5"/>
    
    <!-- Connection dots -->
    <circle cx="50" cy="5" r="4" fill="#e8eef5"/>
    <circle cx="50" cy="95" r="4" fill="#e8eef5"/>
    <circle cx="5" cy="50" r="4" fill="#e8eef5"/>
    <circle cx="95" cy="50" r="4" fill="#e8eef5"/>
    <circle cx="50" cy="50" r="5" fill="#e8eef5"/>
    
    <!-- Diagonal connection dots -->
    <circle cx="18" cy="18" r="3" fill="#e8eef5"/>
    <circle cx="82" cy="18" r="3" fill="#e8eef5"/>
    <circle cx="18" cy="82" r="3" fill="#e8eef5"/>
    <circle cx="82" cy="82" r="3" fill="#e8eef5"/>
  </g>
</svg>
